<svg width="1512" height="1978" viewBox="0 0 1512 1978" fill="none" xmlns="http://www.w3.org/2000/svg">
<g clip-path="url(#clip0_14_1038)">
<path d="M1842.38 -1761L2476.74 -302.969C2237.52 -283.265 1998.29 -263.562 1786.26 -240.982C1574.22 -218.401 1389.37 -192.944 1224.44 25.1291C1059.51 243.202 914.495 653.89 671.811 733.757C429.126 813.625 88.7748 562.671 -162.911 568.05C-414.597 573.429 -577.617 835.141 -740.637 1096.85L-1375 -361.178L1842.38 -1761Z" fill="#FF8989"/>
<g filter="url(#filter0_i_14_1038)">
<path d="M2166.56 -1019.91L2447.42 -298.299C2271.09 -299.615 2094.76 -300.932 1879.36 -295.637C1663.96 -290.342 1409.48 -278.437 1255.28 -121.222C1101.08 35.992 1047.16 338.515 883.872 486.381C720.587 634.247 447.941 627.456 241.552 647.162C35.1624 666.869 -104.97 713.074 -245.102 759.279L-525.958 37.6661L2166.56 -1019.91Z" fill="url(#paint0_linear_14_1038)"/>
</g>
<path d="M812.167 1484.85C811.991 1484.85 811.855 1484.8 811.758 1484.71C811.662 1484.59 811.614 1484.46 811.614 1484.3L811.584 1468.6C811.584 1468.44 811.631 1468.31 811.727 1468.22C811.823 1468.11 811.959 1468.05 812.135 1468.05L813.407 1468.05C813.567 1468.05 813.695 1468.11 813.791 1468.22C813.887 1468.32 813.936 1468.45 813.936 1468.61L813.963 1482.77L821.955 1482.78C822.131 1482.78 822.267 1482.84 822.363 1482.95C822.459 1483.05 822.507 1483.18 822.508 1483.36L822.51 1484.32C822.51 1484.48 822.462 1484.62 822.366 1484.73C822.271 1484.82 822.135 1484.87 821.959 1484.87L812.167 1484.85ZM825.378 1484.88C825.218 1484.88 825.082 1484.83 824.97 1484.73C824.874 1484.62 824.825 1484.48 824.825 1484.32L824.803 1472.95C824.803 1472.79 824.851 1472.66 824.947 1472.56C825.059 1472.45 825.194 1472.4 825.354 1472.4L826.506 1472.4C826.666 1472.4 826.795 1472.46 826.891 1472.57C826.987 1472.66 827.035 1472.79 827.035 1472.95L827.057 1484.33C827.057 1484.49 827.01 1484.62 826.914 1484.74C826.818 1484.83 826.69 1484.88 826.53 1484.88L825.378 1484.88ZM825.158 1470.07C824.998 1470.07 824.862 1470.02 824.75 1469.92C824.654 1469.81 824.605 1469.68 824.605 1469.52L824.603 1468.22C824.602 1468.06 824.65 1467.93 824.746 1467.84C824.858 1467.72 824.993 1467.67 825.153 1467.67L826.665 1467.67C826.825 1467.67 826.954 1467.73 827.05 1467.84C827.162 1467.94 827.218 1468.06 827.219 1468.22L827.221 1469.52C827.221 1469.68 827.166 1469.82 827.054 1469.93C826.958 1470.02 826.83 1470.07 826.67 1470.07L825.158 1470.07ZM831.215 1484.89C831.055 1484.89 830.919 1484.84 830.806 1484.74C830.71 1484.63 830.662 1484.49 830.662 1484.33L830.631 1468.4C830.631 1468.24 830.679 1468.11 830.775 1468.02C830.886 1467.9 831.022 1467.85 831.182 1467.85L832.382 1467.85C832.558 1467.85 832.694 1467.91 832.791 1468.02C832.887 1468.12 832.935 1468.24 832.935 1468.4L832.946 1474C833.377 1473.45 833.904 1473.01 834.527 1472.68C835.151 1472.34 835.942 1472.18 836.902 1472.18C837.942 1472.18 838.823 1472.41 839.544 1472.88C840.281 1473.33 840.834 1473.96 841.203 1474.78C841.589 1475.58 841.783 1476.52 841.785 1477.59L841.798 1484.36C841.798 1484.52 841.75 1484.65 841.654 1484.76C841.558 1484.86 841.423 1484.91 841.247 1484.91L840.047 1484.9C839.887 1484.9 839.75 1484.86 839.638 1484.76C839.542 1484.65 839.494 1484.51 839.494 1484.35L839.481 1477.7C839.479 1476.58 839.205 1475.71 838.66 1475.09C838.115 1474.45 837.314 1474.12 836.258 1474.12C835.266 1474.12 834.467 1474.44 833.86 1475.08C833.253 1475.7 832.951 1476.57 832.953 1477.69L832.966 1484.34C832.966 1484.5 832.918 1484.64 832.822 1484.75C832.727 1484.84 832.591 1484.89 832.415 1484.89L831.215 1484.89ZM848.744 1485.16C847.944 1485.16 847.216 1485 846.559 1484.68C845.903 1484.36 845.374 1483.92 844.973 1483.38C844.572 1482.83 844.37 1482.22 844.369 1481.53C844.367 1480.42 844.813 1479.55 845.708 1478.89C846.603 1478.24 847.77 1477.81 849.21 1477.6L852.785 1477.1L852.783 1476.41C852.782 1475.64 852.557 1475.04 852.108 1474.61C851.675 1474.17 850.963 1473.96 849.971 1473.96C849.251 1473.95 848.667 1474.1 848.22 1474.38C847.788 1474.67 847.485 1475.04 847.31 1475.49C847.214 1475.73 847.046 1475.85 846.806 1475.85L845.726 1475.84C845.55 1475.84 845.414 1475.79 845.318 1475.7C845.238 1475.59 845.198 1475.46 845.197 1475.31C845.197 1475.07 845.284 1474.78 845.46 1474.43C845.651 1474.08 845.938 1473.73 846.322 1473.4C846.705 1473.06 847.193 1472.78 847.784 1472.56C848.392 1472.32 849.127 1472.2 849.991 1472.2C850.951 1472.21 851.76 1472.34 852.416 1472.59C853.073 1472.83 853.585 1473.16 853.954 1473.58C854.339 1474 854.612 1474.47 854.773 1475C854.95 1475.53 855.039 1476.06 855.04 1476.61L855.055 1484.38C855.055 1484.54 854.999 1484.68 854.887 1484.79C854.791 1484.88 854.664 1484.93 854.504 1484.93L853.4 1484.93C853.224 1484.93 853.087 1484.88 852.991 1484.79C852.895 1484.67 852.847 1484.54 852.847 1484.38L852.845 1483.35C852.637 1483.63 852.358 1483.92 852.006 1484.21C851.655 1484.48 851.215 1484.71 850.688 1484.9C850.16 1485.08 849.512 1485.16 848.744 1485.16ZM849.245 1483.36C849.901 1483.36 850.5 1483.23 851.044 1482.96C851.587 1482.67 852.01 1482.23 852.313 1481.64C852.632 1481.05 852.791 1480.3 852.789 1479.41L852.788 1478.74L850.005 1479.14C848.869 1479.3 848.013 1479.57 847.438 1479.95C846.863 1480.32 846.576 1480.79 846.577 1481.37C846.578 1481.81 846.706 1482.19 846.963 1482.49C847.236 1482.78 847.572 1483 847.972 1483.14C848.388 1483.29 848.813 1483.36 849.245 1483.36ZM863.261 1484.95C862.365 1484.95 861.636 1484.78 861.076 1484.44C860.515 1484.09 860.106 1483.6 859.849 1482.97C859.592 1482.33 859.462 1481.58 859.461 1480.72L859.449 1474.38L857.577 1474.38C857.417 1474.38 857.28 1474.33 857.168 1474.23C857.072 1474.12 857.024 1473.99 857.023 1473.83L857.022 1473.01C857.022 1472.85 857.069 1472.72 857.165 1472.63C857.277 1472.51 857.413 1472.46 857.573 1472.46L859.445 1472.46L859.437 1468.45C859.437 1468.29 859.485 1468.17 859.581 1468.07C859.692 1467.96 859.828 1467.9 859.988 1467.9L861.116 1467.9C861.276 1467.91 861.404 1467.96 861.501 1468.07C861.613 1468.17 861.669 1468.3 861.669 1468.46L861.677 1472.47L864.653 1472.47C864.813 1472.47 864.941 1472.53 865.037 1472.64C865.149 1472.74 865.206 1472.86 865.206 1473.02L865.207 1473.84C865.208 1474 865.152 1474.14 865.04 1474.25C864.944 1474.34 864.817 1474.39 864.657 1474.39L861.681 1474.39L861.692 1480.55C861.694 1481.31 861.823 1481.9 862.08 1482.33C862.336 1482.76 862.793 1482.98 863.449 1482.98L864.913 1482.98C865.073 1482.98 865.201 1483.04 865.297 1483.15C865.409 1483.25 865.466 1483.38 865.466 1483.54L865.467 1484.4C865.468 1484.56 865.412 1484.7 865.3 1484.81C865.204 1484.9 865.077 1484.95 864.917 1484.95L863.261 1484.95ZM879.359 1485.22C877.967 1485.22 876.798 1485.01 875.854 1484.59C874.909 1484.16 874.18 1483.6 873.666 1482.93C873.169 1482.24 872.904 1481.51 872.87 1480.74C872.87 1480.62 872.918 1480.5 873.014 1480.41C873.125 1480.3 873.253 1480.24 873.397 1480.24L874.621 1480.24C874.813 1480.24 874.957 1480.29 875.054 1480.39C875.15 1480.48 875.214 1480.6 875.246 1480.72C875.327 1481.11 875.52 1481.49 875.824 1481.88C876.145 1482.25 876.586 1482.56 877.146 1482.82C877.723 1483.06 878.459 1483.18 879.355 1483.18C880.731 1483.18 881.738 1482.94 882.378 1482.47C883.033 1481.97 883.359 1481.32 883.358 1480.5C883.357 1479.94 883.18 1479.49 882.827 1479.15C882.491 1478.8 881.97 1478.49 881.265 1478.22C880.561 1477.94 879.648 1477.64 878.528 1477.32C877.359 1476.98 876.39 1476.61 875.622 1476.21C874.853 1475.81 874.276 1475.31 873.891 1474.72C873.522 1474.13 873.336 1473.38 873.335 1472.46C873.333 1471.6 873.564 1470.83 874.026 1470.16C874.489 1469.47 875.152 1468.93 876.015 1468.53C876.894 1468.13 877.958 1467.94 879.206 1467.94C880.198 1467.94 881.062 1468.08 881.799 1468.35C882.551 1468.61 883.176 1468.96 883.673 1469.41C884.17 1469.84 884.546 1470.32 884.803 1470.83C885.06 1471.33 885.197 1471.81 885.214 1472.29C885.214 1472.41 885.175 1472.52 885.095 1472.63C885.015 1472.73 884.887 1472.77 884.711 1472.77L883.439 1472.77C883.327 1472.77 883.207 1472.74 883.079 1472.67C882.967 1472.61 882.879 1472.49 882.814 1472.31C882.717 1471.66 882.348 1471.11 881.707 1470.66C881.066 1470.21 880.234 1469.98 879.21 1469.98C878.17 1469.98 877.322 1470.18 876.667 1470.57C876.028 1470.97 875.709 1471.6 875.711 1472.44C875.712 1472.99 875.864 1473.44 876.169 1473.81C876.474 1474.17 876.954 1474.48 877.611 1474.75C878.267 1475.03 879.124 1475.32 880.181 1475.62C881.461 1475.98 882.51 1476.35 883.327 1476.76C884.143 1477.14 884.744 1477.63 885.129 1478.22C885.531 1478.8 885.732 1479.54 885.734 1480.46C885.736 1481.46 885.473 1482.33 884.947 1483.05C884.42 1483.75 883.677 1484.29 882.718 1484.67C881.774 1485.04 880.655 1485.22 879.359 1485.22ZM893.544 1485.25C891.896 1485.24 890.583 1484.74 889.606 1483.73C888.628 1482.7 888.089 1481.31 887.99 1479.55C887.973 1479.34 887.965 1479.08 887.964 1478.76C887.964 1478.42 887.971 1478.15 887.987 1477.94C888.048 1476.8 888.311 1475.81 888.773 1474.97C889.235 1474.1 889.866 1473.44 890.665 1472.98C891.48 1472.51 892.432 1472.28 893.52 1472.29C894.736 1472.29 895.752 1472.55 896.569 1473.06C897.402 1473.57 898.036 1474.3 898.469 1475.25C898.903 1476.19 899.121 1477.3 899.124 1478.56L899.125 1478.97C899.125 1479.15 899.069 1479.28 898.957 1479.38C898.861 1479.47 898.734 1479.52 898.574 1479.52L890.27 1479.5C890.27 1479.52 890.27 1479.55 890.27 1479.6C890.27 1479.65 890.27 1479.69 890.27 1479.72C890.303 1480.38 890.448 1480.99 890.705 1481.57C890.963 1482.13 891.331 1482.59 891.812 1482.94C892.293 1483.29 892.869 1483.47 893.541 1483.47C894.117 1483.47 894.597 1483.38 894.981 1483.21C895.364 1483.03 895.676 1482.84 895.915 1482.64C896.155 1482.41 896.315 1482.24 896.395 1482.13C896.538 1481.92 896.65 1481.8 896.73 1481.77C896.81 1481.72 896.938 1481.7 897.114 1481.7L898.266 1481.7C898.426 1481.7 898.554 1481.75 898.65 1481.85C898.762 1481.93 898.81 1482.05 898.795 1482.21C898.779 1482.45 898.652 1482.74 898.412 1483.1C898.173 1483.43 897.83 1483.77 897.382 1484.1C896.935 1484.44 896.391 1484.72 895.752 1484.94C895.112 1485.15 894.376 1485.25 893.544 1485.25ZM890.266 1477.85L896.842 1477.86L896.842 1477.79C896.841 1477.07 896.704 1476.43 896.431 1475.87C896.174 1475.31 895.797 1474.87 895.3 1474.55C894.804 1474.21 894.211 1474.04 893.523 1474.04C892.835 1474.04 892.244 1474.2 891.748 1474.54C891.269 1474.86 890.902 1475.3 890.647 1475.86C890.392 1476.42 890.265 1477.06 890.266 1477.78L890.266 1477.85ZM902.558 1485.02C902.398 1485.02 902.262 1484.98 902.149 1484.88C902.053 1484.77 902.005 1484.63 902.005 1484.47L901.983 1473.09C901.983 1472.93 902.03 1472.81 902.126 1472.71C902.238 1472.6 902.374 1472.54 902.534 1472.54L903.614 1472.55C903.774 1472.55 903.902 1472.6 903.998 1472.71C904.11 1472.81 904.167 1472.94 904.167 1473.1L904.169 1473.94C904.536 1473.44 904.999 1473.05 905.558 1472.77C906.118 1472.46 906.79 1472.31 907.574 1472.31C909.382 1472.3 910.663 1473.04 911.418 1474.53C911.784 1473.86 912.319 1473.32 913.023 1472.92C913.726 1472.52 914.526 1472.33 915.422 1472.33C916.254 1472.33 917.006 1472.52 917.679 1472.91C918.367 1473.29 918.904 1473.88 919.29 1474.66C919.691 1475.43 919.893 1476.4 919.895 1477.57L919.909 1484.5C919.909 1484.66 919.853 1484.8 919.741 1484.91C919.646 1485.01 919.518 1485.06 919.358 1485.06L918.23 1485.05C918.07 1485.05 917.934 1485 917.821 1484.91C917.725 1484.8 917.677 1484.66 917.677 1484.5L917.664 1477.78C917.662 1476.88 917.533 1476.18 917.276 1475.67C917.019 1475.16 916.674 1474.79 916.242 1474.59C915.809 1474.38 915.337 1474.27 914.825 1474.27C914.409 1474.27 913.985 1474.37 913.554 1474.58C913.122 1474.79 912.763 1475.15 912.476 1475.66C912.205 1476.17 912.07 1476.87 912.072 1477.77L912.085 1484.49C912.085 1484.65 912.029 1484.79 911.917 1484.9C911.822 1484.99 911.694 1485.04 911.534 1485.04L910.406 1485.04C910.246 1485.04 910.11 1484.99 909.997 1484.89C909.901 1484.78 909.853 1484.65 909.853 1484.49L909.84 1477.77C909.838 1476.87 909.701 1476.17 909.428 1475.65C909.155 1475.14 908.802 1474.78 908.37 1474.57C907.937 1474.36 907.481 1474.26 907.001 1474.26C906.585 1474.26 906.161 1474.36 905.73 1474.57C905.298 1474.77 904.939 1475.13 904.652 1475.64C904.381 1476.16 904.246 1476.85 904.248 1477.73L904.261 1484.47C904.261 1484.63 904.205 1484.77 904.093 1484.88C903.998 1484.98 903.87 1485.03 903.71 1485.03L902.558 1485.02ZM927.99 1485.31C926.966 1485.31 926.094 1485.08 925.373 1484.64C924.668 1484.17 924.131 1483.53 923.761 1482.71C923.392 1481.9 923.206 1480.96 923.204 1479.9L923.191 1473.13C923.191 1472.97 923.239 1472.85 923.334 1472.75C923.446 1472.64 923.582 1472.58 923.742 1472.58L924.942 1472.59C925.102 1472.59 925.23 1472.64 925.326 1472.76C925.439 1472.85 925.495 1472.98 925.495 1473.14L925.508 1479.79C925.512 1482.17 926.555 1483.37 928.635 1483.37C929.627 1483.37 930.418 1483.06 931.009 1482.44C931.616 1481.8 931.918 1480.92 931.916 1479.8L931.903 1473.15C931.903 1472.99 931.951 1472.86 932.046 1472.77C932.158 1472.66 932.294 1472.6 932.454 1472.6L933.63 1472.6C933.806 1472.6 933.942 1472.66 934.038 1472.77C934.135 1472.87 934.183 1473 934.183 1473.16L934.205 1484.53C934.205 1484.69 934.157 1484.83 934.061 1484.94C933.966 1485.04 933.83 1485.08 933.654 1485.08L932.55 1485.08C932.39 1485.08 932.254 1485.03 932.141 1484.94C932.045 1484.82 931.997 1484.69 931.997 1484.53L931.995 1483.47C931.564 1484.03 931.037 1484.48 930.413 1484.81C929.806 1485.15 928.998 1485.31 927.99 1485.31ZM941.252 1485.34C940.452 1485.34 939.723 1485.17 939.067 1484.85C938.41 1484.53 937.881 1484.1 937.48 1483.55C937.079 1483.01 936.878 1482.39 936.877 1481.7C936.875 1480.6 937.321 1479.72 938.216 1479.07C939.111 1478.41 940.278 1477.98 941.717 1477.78L945.292 1477.28L945.291 1476.59C945.29 1475.82 945.064 1475.22 944.616 1474.78C944.183 1474.35 943.47 1474.13 942.478 1474.13C941.758 1474.13 941.175 1474.27 940.727 1474.56C940.296 1474.85 939.992 1475.21 939.817 1475.66C939.722 1475.9 939.554 1476.02 939.314 1476.02L938.234 1476.02C938.058 1476.02 937.922 1475.97 937.826 1475.87C937.746 1475.76 937.705 1475.63 937.705 1475.49C937.705 1475.25 937.792 1474.95 937.967 1474.6C938.159 1474.25 938.446 1473.91 938.829 1473.57C939.213 1473.24 939.7 1472.96 940.292 1472.74C940.899 1472.5 941.635 1472.38 942.499 1472.38C943.459 1472.38 944.267 1472.51 944.924 1472.77C945.58 1473.01 946.093 1473.34 946.462 1473.76C946.846 1474.17 947.119 1474.64 947.28 1475.17C947.457 1475.7 947.546 1476.24 947.547 1476.78L947.562 1484.56C947.562 1484.72 947.507 1484.85 947.395 1484.96C947.299 1485.06 947.171 1485.11 947.011 1485.11L945.907 1485.11C945.731 1485.11 945.595 1485.06 945.499 1484.96C945.403 1484.85 945.354 1484.71 945.354 1484.55L945.352 1483.52C945.145 1483.81 944.865 1484.1 944.514 1484.38C944.162 1484.65 943.723 1484.89 943.195 1485.08C942.668 1485.25 942.02 1485.34 941.252 1485.34ZM941.752 1483.54C942.408 1483.54 943.008 1483.4 943.551 1483.13C944.095 1482.85 944.518 1482.41 944.821 1481.82C945.14 1481.22 945.298 1480.48 945.297 1479.58L945.295 1478.91L942.512 1479.32C941.377 1479.47 940.521 1479.74 939.946 1480.13C939.371 1480.49 939.083 1480.97 939.084 1481.54C939.085 1481.99 939.214 1482.37 939.471 1482.67C939.743 1482.96 940.08 1483.18 940.48 1483.32C940.896 1483.46 941.32 1483.54 941.752 1483.54ZM958.251 1485.13C958.091 1485.13 957.955 1485.08 957.843 1484.98C957.746 1484.87 957.698 1484.74 957.698 1484.58L957.679 1474.57L955.639 1474.56C955.479 1474.56 955.343 1474.52 955.231 1474.42C955.134 1474.31 955.086 1474.17 955.086 1474.01L955.084 1473.2C955.084 1473.04 955.132 1472.91 955.228 1472.81C955.339 1472.7 955.475 1472.64 955.635 1472.64L957.675 1472.65L957.673 1471.45C957.671 1470.63 957.806 1469.92 958.077 1469.31C958.348 1468.69 958.779 1468.21 959.37 1467.88C959.978 1467.54 960.785 1467.37 961.793 1467.38L963.233 1467.38C963.393 1467.38 963.521 1467.44 963.618 1467.55C963.714 1467.64 963.762 1467.77 963.762 1467.93L963.764 1468.75C963.764 1468.91 963.716 1469.04 963.621 1469.16C963.525 1469.25 963.397 1469.3 963.237 1469.3L961.845 1469.3C961.093 1469.3 960.581 1469.49 960.31 1469.89C960.039 1470.28 959.904 1470.84 959.905 1471.57L959.907 1472.65L963.003 1472.66C963.163 1472.66 963.291 1472.72 963.388 1472.83C963.484 1472.92 963.532 1473.05 963.532 1473.21L963.534 1474.03C963.534 1474.19 963.486 1474.32 963.391 1474.44C963.295 1474.53 963.167 1474.58 963.007 1474.58L959.911 1474.57L959.93 1484.58C959.93 1484.74 959.874 1484.88 959.763 1484.99C959.667 1485.08 959.539 1485.13 959.379 1485.13L958.251 1485.13ZM969.002 1485.39C968.202 1485.39 967.473 1485.23 966.817 1484.91C966.16 1484.58 965.631 1484.15 965.23 1483.61C964.829 1483.06 964.628 1482.45 964.627 1481.76C964.625 1480.65 965.071 1479.77 965.966 1479.12C966.861 1478.47 968.028 1478.04 969.467 1477.83L973.042 1477.33L973.041 1476.64C973.04 1475.87 972.814 1475.27 972.366 1474.84C971.933 1474.4 971.22 1474.19 970.228 1474.18C969.508 1474.18 968.925 1474.33 968.477 1474.61C968.046 1474.9 967.742 1475.27 967.567 1475.72C967.472 1475.96 967.304 1476.07 967.064 1476.07L965.984 1476.07C965.808 1476.07 965.672 1476.02 965.576 1475.93C965.495 1475.82 965.455 1475.69 965.455 1475.54C965.455 1475.3 965.542 1475.01 965.717 1474.66C965.909 1474.3 966.196 1473.96 966.579 1473.63C966.963 1473.29 967.45 1473.01 968.042 1472.79C968.649 1472.55 969.385 1472.43 970.249 1472.43C971.209 1472.43 972.017 1472.56 972.674 1472.82C973.33 1473.06 973.843 1473.39 974.212 1473.81C974.596 1474.22 974.869 1474.7 975.03 1475.23C975.207 1475.75 975.296 1476.29 975.297 1476.83L975.312 1484.61C975.312 1484.77 975.257 1484.91 975.145 1485.02C975.049 1485.11 974.921 1485.16 974.761 1485.16L973.657 1485.16C973.481 1485.16 973.345 1485.11 973.249 1485.01C973.153 1484.9 973.104 1484.77 973.104 1484.61L973.102 1483.57C972.895 1483.86 972.615 1484.15 972.264 1484.44C971.912 1484.71 971.473 1484.94 970.945 1485.13C970.417 1485.3 969.77 1485.39 969.002 1485.39ZM969.502 1483.59C970.158 1483.59 970.758 1483.46 971.301 1483.19C971.845 1482.9 972.268 1482.46 972.571 1481.87C972.89 1481.28 973.048 1480.53 973.047 1479.64L973.045 1478.97L970.262 1479.37C969.127 1479.53 968.271 1479.8 967.696 1480.18C967.12 1480.55 966.833 1481.02 966.834 1481.59C966.835 1482.04 966.964 1482.42 967.221 1482.72C967.493 1483.01 967.83 1483.23 968.23 1483.37C968.646 1483.52 969.07 1483.59 969.502 1483.59ZM983.084 1485.42C982.188 1485.42 981.42 1485.3 980.779 1485.08C980.139 1484.85 979.618 1484.58 979.218 1484.26C978.817 1483.94 978.512 1483.62 978.304 1483.3C978.111 1482.98 978.007 1482.72 977.99 1482.53C977.974 1482.35 978.03 1482.22 978.158 1482.12C978.285 1482.02 978.413 1481.98 978.541 1481.98L979.597 1481.98C979.693 1481.98 979.765 1481.99 979.813 1482.03C979.877 1482.04 979.958 1482.11 980.054 1482.22C980.262 1482.44 980.495 1482.67 980.751 1482.89C981.007 1483.12 981.32 1483.3 981.688 1483.45C982.072 1483.59 982.544 1483.66 983.104 1483.66C983.92 1483.67 984.592 1483.52 985.12 1483.21C985.647 1482.89 985.91 1482.43 985.909 1481.82C985.908 1481.42 985.796 1481.1 985.571 1480.86C985.363 1480.62 984.978 1480.4 984.418 1480.21C983.874 1480.02 983.121 1479.82 982.161 1479.61C981.2 1479.38 980.44 1479.11 979.879 1478.79C979.319 1478.45 978.918 1478.06 978.677 1477.61C978.436 1477.14 978.315 1476.62 978.314 1476.05C978.313 1475.46 978.488 1474.89 978.839 1474.34C979.19 1473.79 979.701 1473.33 980.372 1472.98C981.06 1472.63 981.915 1472.45 982.939 1472.46C983.771 1472.46 984.483 1472.56 985.076 1472.77C985.668 1472.98 986.157 1473.25 986.541 1473.57C986.926 1473.87 987.214 1474.18 987.407 1474.48C987.6 1474.79 987.704 1475.04 987.72 1475.25C987.737 1475.41 987.689 1475.55 987.577 1475.66C987.465 1475.75 987.338 1475.8 987.194 1475.8L986.186 1475.8C986.074 1475.8 985.977 1475.77 985.897 1475.73C985.833 1475.68 985.769 1475.62 985.705 1475.56C985.545 1475.35 985.352 1475.14 985.128 1474.93C984.92 1474.72 984.639 1474.56 984.287 1474.43C983.951 1474.28 983.503 1474.21 982.943 1474.21C982.143 1474.21 981.543 1474.37 981.143 1474.71C980.744 1475.04 980.545 1475.47 980.546 1475.98C980.546 1476.28 980.635 1476.56 980.811 1476.8C980.988 1477.04 981.324 1477.25 981.821 1477.45C982.317 1477.64 983.053 1477.85 984.03 1478.07C985.086 1478.28 985.919 1478.57 986.527 1478.92C987.136 1479.27 987.569 1479.68 987.826 1480.15C988.083 1480.61 988.212 1481.15 988.213 1481.75C988.214 1482.43 988.015 1483.04 987.616 1483.6C987.233 1484.16 986.658 1484.61 985.891 1484.94C985.139 1485.26 984.204 1485.42 983.084 1485.42ZM991.55 1485.19C991.39 1485.19 991.254 1485.14 991.141 1485.05C991.045 1484.94 990.997 1484.8 990.997 1484.64L990.975 1473.26C990.975 1473.1 991.023 1472.98 991.118 1472.88C991.23 1472.77 991.366 1472.71 991.526 1472.71L992.678 1472.72C992.838 1472.72 992.966 1472.77 993.062 1472.88C993.159 1472.98 993.207 1473.11 993.207 1473.27L993.229 1484.64C993.229 1484.8 993.181 1484.94 993.085 1485.05C992.99 1485.15 992.862 1485.2 992.702 1485.2L991.55 1485.19ZM991.33 1470.38C991.17 1470.38 991.034 1470.34 990.921 1470.24C990.825 1470.13 990.777 1469.99 990.777 1469.83L990.774 1468.54C990.774 1468.38 990.822 1468.25 990.917 1468.15C991.029 1468.04 991.165 1467.98 991.325 1467.98L992.837 1467.99C992.997 1467.99 993.125 1468.04 993.221 1468.16C993.334 1468.25 993.39 1468.38 993.39 1468.54L993.393 1469.84C993.393 1470 993.337 1470.13 993.225 1470.24C993.13 1470.34 993.002 1470.39 992.842 1470.39L991.33 1470.38ZM997.386 1485.2C997.226 1485.2 997.09 1485.16 996.978 1485.06C996.882 1484.95 996.833 1484.81 996.833 1484.65L996.803 1468.72C996.803 1468.56 996.85 1468.43 996.946 1468.33C997.058 1468.22 997.194 1468.16 997.354 1468.16L998.482 1468.17C998.658 1468.17 998.794 1468.22 998.89 1468.34C998.986 1468.43 999.035 1468.56 999.035 1468.72L999.065 1484.66C999.065 1484.82 999.018 1484.95 998.922 1485.06C998.826 1485.16 998.69 1485.21 998.514 1485.21L997.386 1485.2ZM1003.43 1485.22C1003.27 1485.22 1003.14 1485.17 1003.02 1485.07C1002.93 1484.96 1002.88 1484.82 1002.88 1484.66L1002.86 1473.29C1002.86 1473.13 1002.91 1473 1003 1472.9C1003.11 1472.79 1003.25 1472.74 1003.41 1472.74L1004.56 1472.74C1004.72 1472.74 1004.85 1472.79 1004.95 1472.91C1005.04 1473 1005.09 1473.13 1005.09 1473.29L1005.11 1484.67C1005.11 1484.83 1005.06 1484.96 1004.97 1485.07C1004.87 1485.17 1004.74 1485.22 1004.58 1485.22L1003.43 1485.22ZM1003.21 1470.41C1003.05 1470.41 1002.92 1470.36 1002.8 1470.26C1002.71 1470.15 1002.66 1470.01 1002.66 1469.85L1002.66 1468.56C1002.66 1468.4 1002.7 1468.27 1002.8 1468.17C1002.91 1468.06 1003.05 1468.01 1003.21 1468.01L1004.72 1468.01C1004.88 1468.01 1005.01 1468.07 1005.1 1468.18C1005.22 1468.28 1005.27 1468.4 1005.27 1468.56L1005.28 1469.86C1005.28 1470.02 1005.22 1470.16 1005.11 1470.27C1005.01 1470.36 1004.88 1470.41 1004.72 1470.41L1003.21 1470.41ZM1013.56 1485.23C1012.67 1485.23 1011.94 1485.06 1011.38 1484.73C1010.82 1484.37 1010.41 1483.88 1010.15 1483.26C1009.9 1482.62 1009.77 1481.87 1009.76 1481L1009.75 1474.67L1007.88 1474.66C1007.72 1474.66 1007.58 1474.62 1007.47 1474.52C1007.38 1474.41 1007.33 1474.27 1007.33 1474.11L1007.33 1473.3C1007.33 1473.14 1007.37 1473.01 1007.47 1472.91C1007.58 1472.8 1007.72 1472.74 1007.88 1472.74L1009.75 1472.75L1009.74 1468.74C1009.74 1468.58 1009.79 1468.45 1009.88 1468.36C1010 1468.24 1010.13 1468.19 1010.29 1468.19L1011.42 1468.19C1011.58 1468.19 1011.71 1468.25 1011.8 1468.36C1011.92 1468.46 1011.97 1468.58 1011.97 1468.74L1011.98 1472.75L1014.96 1472.76C1015.12 1472.76 1015.25 1472.81 1015.34 1472.93C1015.45 1473.02 1015.51 1473.15 1015.51 1473.31L1015.51 1474.13C1015.51 1474.29 1015.46 1474.42 1015.34 1474.53C1015.25 1474.63 1015.12 1474.68 1014.96 1474.68L1011.98 1474.67L1012 1480.84C1012 1481.59 1012.13 1482.18 1012.38 1482.62C1012.64 1483.05 1013.1 1483.27 1013.75 1483.27L1015.22 1483.27C1015.38 1483.27 1015.51 1483.33 1015.6 1483.44C1015.71 1483.53 1015.77 1483.66 1015.77 1483.82L1015.77 1484.69C1015.77 1484.85 1015.72 1484.98 1015.6 1485.09C1015.51 1485.19 1015.38 1485.24 1015.22 1485.24L1013.56 1485.23ZM1021.55 1485.49C1020.75 1485.49 1020.02 1485.33 1019.36 1485.01C1018.71 1484.68 1018.18 1484.25 1017.78 1483.71C1017.38 1483.16 1017.17 1482.55 1017.17 1481.86C1017.17 1480.75 1017.62 1479.87 1018.51 1479.22C1019.41 1478.57 1020.57 1478.14 1022.01 1477.93L1025.59 1477.43L1025.59 1476.74C1025.59 1475.97 1025.36 1475.37 1024.91 1474.94C1024.48 1474.5 1023.77 1474.29 1022.78 1474.28C1022.06 1474.28 1021.47 1474.43 1021.02 1474.71C1020.59 1475 1020.29 1475.37 1020.11 1475.82C1020.02 1476.06 1019.85 1476.17 1019.61 1476.17L1018.53 1476.17C1018.35 1476.17 1018.22 1476.12 1018.12 1476.03C1018.04 1475.92 1018 1475.79 1018 1475.64C1018 1475.4 1018.09 1475.11 1018.26 1474.76C1018.46 1474.4 1018.74 1474.06 1019.13 1473.73C1019.51 1473.39 1020 1473.11 1020.59 1472.89C1021.2 1472.65 1021.93 1472.53 1022.8 1472.53C1023.76 1472.53 1024.56 1472.66 1025.22 1472.92C1025.88 1473.16 1026.39 1473.49 1026.76 1473.91C1027.14 1474.32 1027.42 1474.8 1027.58 1475.33C1027.75 1475.85 1027.84 1476.39 1027.84 1476.93L1027.86 1484.71C1027.86 1484.87 1027.8 1485.01 1027.69 1485.12C1027.6 1485.21 1027.47 1485.26 1027.31 1485.26L1026.2 1485.26C1026.03 1485.26 1025.89 1485.21 1025.8 1485.11C1025.7 1485 1025.65 1484.87 1025.65 1484.71L1025.65 1483.67C1025.44 1483.96 1025.16 1484.25 1024.81 1484.54C1024.46 1484.81 1024.02 1485.04 1023.49 1485.23C1022.96 1485.4 1022.32 1485.49 1021.55 1485.49ZM1022.05 1483.69C1022.7 1483.69 1023.3 1483.56 1023.85 1483.29C1024.39 1483 1024.81 1482.56 1025.12 1481.97C1025.44 1481.38 1025.6 1480.63 1025.59 1479.74L1025.59 1479.07L1022.81 1479.47C1021.67 1479.63 1020.82 1479.9 1020.24 1480.28C1019.67 1480.65 1019.38 1481.12 1019.38 1481.69C1019.38 1482.14 1019.51 1482.52 1019.77 1482.82C1020.04 1483.11 1020.38 1483.33 1020.78 1483.47C1021.19 1483.62 1021.62 1483.69 1022.05 1483.69ZM1035.63 1485.52C1034.73 1485.52 1033.97 1485.4 1033.33 1485.18C1032.69 1484.95 1032.16 1484.68 1031.76 1484.36C1031.36 1484.04 1031.06 1483.72 1030.85 1483.4C1030.66 1483.08 1030.55 1482.82 1030.54 1482.63C1030.52 1482.45 1030.58 1482.32 1030.7 1482.22C1030.83 1482.12 1030.96 1482.08 1031.09 1482.08L1032.14 1482.08C1032.24 1482.08 1032.31 1482.09 1032.36 1482.13C1032.42 1482.14 1032.5 1482.21 1032.6 1482.32C1032.81 1482.54 1033.04 1482.77 1033.3 1482.99C1033.55 1483.22 1033.87 1483.4 1034.23 1483.55C1034.62 1483.69 1035.09 1483.76 1035.65 1483.76C1036.47 1483.77 1037.14 1483.62 1037.67 1483.31C1038.19 1482.99 1038.46 1482.53 1038.46 1481.92C1038.45 1481.52 1038.34 1481.2 1038.12 1480.96C1037.91 1480.72 1037.53 1480.5 1036.96 1480.31C1036.42 1480.12 1035.67 1479.92 1034.71 1479.71C1033.75 1479.48 1032.99 1479.21 1032.43 1478.89C1031.87 1478.55 1031.46 1478.16 1031.22 1477.71C1030.98 1477.24 1030.86 1476.72 1030.86 1476.15C1030.86 1475.56 1031.03 1474.99 1031.39 1474.44C1031.74 1473.89 1032.25 1473.43 1032.92 1473.08C1033.61 1472.73 1034.46 1472.55 1035.49 1472.56C1036.32 1472.56 1037.03 1472.66 1037.62 1472.87C1038.21 1473.08 1038.7 1473.35 1039.09 1473.67C1039.47 1473.97 1039.76 1474.28 1039.95 1474.58C1040.15 1474.89 1040.25 1475.14 1040.27 1475.35C1040.28 1475.51 1040.24 1475.65 1040.12 1475.76C1040.01 1475.85 1039.88 1475.9 1039.74 1475.9L1038.73 1475.9C1038.62 1475.9 1038.52 1475.87 1038.44 1475.83C1038.38 1475.78 1038.32 1475.72 1038.25 1475.66C1038.09 1475.45 1037.9 1475.24 1037.67 1475.03C1037.47 1474.82 1037.19 1474.66 1036.83 1474.53C1036.5 1474.38 1036.05 1474.31 1035.49 1474.31C1034.69 1474.31 1034.09 1474.47 1033.69 1474.81C1033.29 1475.14 1033.09 1475.57 1033.09 1476.08C1033.09 1476.38 1033.18 1476.66 1033.36 1476.9C1033.53 1477.14 1033.87 1477.35 1034.37 1477.55C1034.86 1477.74 1035.6 1477.95 1036.58 1478.17C1037.63 1478.38 1038.47 1478.67 1039.07 1479.02C1039.68 1479.37 1040.12 1479.78 1040.37 1480.25C1040.63 1480.71 1040.76 1481.25 1040.76 1481.85C1040.76 1482.53 1040.56 1483.14 1040.16 1483.7C1039.78 1484.26 1039.21 1484.71 1038.44 1485.04C1037.69 1485.36 1036.75 1485.52 1035.63 1485.52ZM811.691 1512.23C811.563 1512.23 811.451 1512.19 811.354 1512.11C811.258 1512.03 811.21 1511.91 811.21 1511.75L811.208 1510.69C811.207 1510.5 811.247 1510.35 811.327 1510.23C811.423 1510.12 811.566 1510.01 811.758 1509.9L818.158 1505.52L811.742 1501.11C811.549 1500.99 811.405 1500.87 811.309 1500.75C811.229 1500.64 811.188 1500.49 811.188 1500.3L811.186 1499.24C811.186 1499.08 811.233 1498.96 811.329 1498.88C811.425 1498.8 811.537 1498.76 811.665 1498.76C811.761 1498.76 811.865 1498.79 811.977 1498.86C812.089 1498.91 812.177 1498.96 812.242 1499L819.787 1504.2C820.044 1504.38 820.22 1504.55 820.316 1504.71C820.429 1504.87 820.485 1505.07 820.485 1505.31L820.486 1505.72C820.487 1505.94 820.431 1506.14 820.319 1506.32C820.224 1506.47 820.048 1506.64 819.792 1506.82L812.266 1511.99C812.202 1512.04 812.114 1512.09 812.002 1512.16C811.891 1512.2 811.787 1512.23 811.691 1512.23ZM823.48 1512.25C823.352 1512.25 823.24 1512.21 823.143 1512.13C823.047 1512.05 822.999 1511.93 822.999 1511.77L822.997 1510.71C822.996 1510.52 823.036 1510.37 823.116 1510.26C823.212 1510.14 823.355 1510.03 823.547 1509.92L829.947 1505.54L823.531 1501.14C823.338 1501.01 823.194 1500.89 823.098 1500.78C823.018 1500.66 822.977 1500.51 822.977 1500.32L822.975 1499.26C822.975 1499.1 823.023 1498.98 823.118 1498.9C823.214 1498.82 823.326 1498.78 823.454 1498.79C823.55 1498.79 823.654 1498.82 823.766 1498.88C823.878 1498.93 823.966 1498.98 824.031 1499.03L831.576 1504.22C831.833 1504.4 832.009 1504.57 832.105 1504.73C832.218 1504.89 832.274 1505.09 832.274 1505.33L832.275 1505.74C832.276 1505.96 832.22 1506.16 832.108 1506.34C832.013 1506.5 831.837 1506.66 831.581 1506.84L824.055 1512.01C823.991 1512.06 823.903 1512.11 823.792 1512.18C823.68 1512.23 823.576 1512.25 823.48 1512.25ZM835.269 1512.27C835.141 1512.27 835.029 1512.23 834.932 1512.15C834.836 1512.07 834.788 1511.95 834.788 1511.79L834.786 1510.73C834.785 1510.54 834.825 1510.39 834.905 1510.28C835.001 1510.17 835.144 1510.06 835.336 1509.94L841.736 1505.56L835.32 1501.16C835.127 1501.03 834.983 1500.91 834.887 1500.8C834.807 1500.69 834.766 1500.53 834.766 1500.34L834.764 1499.29C834.764 1499.13 834.812 1499.01 834.907 1498.93C835.003 1498.85 835.115 1498.81 835.243 1498.81C835.339 1498.81 835.443 1498.84 835.555 1498.9C835.667 1498.95 835.756 1499 835.82 1499.05L843.365 1504.25C843.622 1504.42 843.798 1504.59 843.894 1504.75C844.007 1504.91 844.063 1505.11 844.064 1505.35L844.064 1505.76C844.065 1505.98 844.009 1506.18 843.897 1506.36C843.802 1506.52 843.626 1506.69 843.37 1506.86L835.844 1512.03C835.78 1512.08 835.692 1512.14 835.581 1512.2C835.469 1512.25 835.365 1512.27 835.269 1512.27Z" fill="#4F4F4F"/>
</g>
<defs>
<filter id="filter0_i_14_1038" x="-525.958" y="-1019.91" width="2973.38" height="1783.19" filterUnits="userSpaceOnUse" color-interpolation-filters="sRGB">
<feFlood flood-opacity="0" result="BackgroundImageFix"/>
<feBlend mode="normal" in="SourceGraphic" in2="BackgroundImageFix" result="shape"/>
<feColorMatrix in="SourceAlpha" type="matrix" values="0 0 0 0 0 0 0 0 0 0 0 0 0 0 0 0 0 0 127 0" result="hardAlpha"/>
<feOffset dy="4"/>
<feGaussianBlur stdDeviation="2"/>
<feComposite in2="hardAlpha" operator="arithmetic" k2="-1" k3="1"/>
<feColorMatrix type="matrix" values="0 0 0 0 0 0 0 0 0 0 0 0 0 0 0 0 0 0 0.25 0"/>
<feBlend mode="normal" in2="shape" result="effect1_innerShadow_14_1038"/>
</filter>
<linearGradient id="paint0_linear_14_1038" x1="1157.91" y1="547.261" x2="812.811" y2="-488.627" gradientUnits="userSpaceOnUse">
<stop offset="0.46875" stop-color="#DE3146"/>
<stop offset="1" stop-color="#DE3146" stop-opacity="0"/>
</linearGradient>
<clipPath id="clip0_14_1038">
<rect width="2892.93" height="2019.44" fill="white" transform="translate(2714.4 823.059) rotate(156.487)"/>
</clipPath>
</defs>
</svg>
